<?xml version="1.0" encoding="utf-8"?>
<!-- Generator: Adobe Illustrator 16.0.0, SVG Export Plug-In . SVG Version: 6.00 Build 0)  -->
<!DOCTYPE svg PUBLIC "-//W3C//DTD SVG 1.1//EN" "http://www.w3.org/Graphics/SVG/1.1/DTD/svg11.dtd">
<svg version="1.1" id="그룹_1446" xmlns="http://www.w3.org/2000/svg" xmlns:xlink="http://www.w3.org/1999/xlink" x="0px"
	 y="0px" width="58px" height="18.834px" viewBox="4.833 2.685 58 18.834" enable-background="new 4.833 2.685 58 18.834"
	 xml:space="preserve">
<g id="그룹_1444" transform="translate(0 3.568)">
	<rect id="사각형_1439" x="29.475" y="4.832" fill="#2196F3" width="1.826" height="6.529"/>
	<path id="패스_4841" fill="#2196F3" d="M31.274,13.248v1.015h-8.25v-3.374h1.789v2.358L31.274,13.248L31.274,13.248z"/>
	<path id="패스_4842" fill="#2196F3" d="M28.766,9.276v1.015h-7.145V7.07h4.371V6.002h-4.371V4.988h6.108v3.096h-4.376v1.191
		L28.766,9.276z"/>
	<rect id="사각형_1440" x="10.552" y="11.68" fill="#2196F3" width="9.856" height="1.025"/>
	<path id="패스_4843" fill="#2196F3" d="M19.685,4.989v5.967h-1.827V6.003h-6.685V4.989H19.685z"/>
</g>
<g id="그룹_1445" transform="translate(73.199)">
	<path id="패스_4844" fill="#002171" d="M-31.098,10.008h-0.725v7.805h-1.728v-3.618h-6.215V7.285h5.343v1.138h-3.615v4.635h4.486
		V7.285h1.729V8.87h0.726V7.285h1.728v10.528h-1.728V10.008z"/>
	<path id="패스_4845" fill="#002171" d="M-23.49,9.232l-3.078,3.958l-1.351-0.63l3.238-4.138h-2.483V7.285h7.217v1.138H-22.3
		l3.237,4.138l-1.335,0.641L-23.49,9.232z M-25.434,13.842h1.728v2.832h6.939v1.137h-8.667V13.842z M-18.638,10.116h-1.889V8.979
		h1.888V7.285h1.729v7.598h-1.729L-18.638,10.116z"/>
</g>
</svg>
