<?xml version="1.0" encoding="utf-8"?>
<!-- Generator: Adobe Illustrator 16.0.0, SVG Export Plug-In . SVG Version: 6.00 Build 0)  -->
<!DOCTYPE svg PUBLIC "-//W3C//DTD SVG 1.1//EN" "http://www.w3.org/Graphics/SVG/1.1/DTD/svg11.dtd">
<svg version="1.1" id="Layer_1" xmlns="http://www.w3.org/2000/svg" xmlns:xlink="http://www.w3.org/1999/xlink" x="0px" y="0px"
	 width="572px" height="26.807px" viewBox="0 0 572 26.807" enable-background="new 0 0 572 26.807" xml:space="preserve">
<g id="그룹_1500" transform="translate(-9.824 -8.95)">
	<g id="그룹_1" transform="translate(310.509 8.95)">
		<path id="패스_1" fill="#2196F3" d="M271.315,24.007v2.766h-22.358v-6.6h4.888v3.83L271.315,24.007z"/>
		<path id="패스_2" fill="#2196F3" d="M263.937,12.288v2.681h-7.677v3.864h-4.824v-3.864h-7.771v-2.681H263.937z"/>
		<path id="패스_3" fill="#2196F3" d="M253.911,2.747c-1.17-0.04-2.321,0.298-3.284,0.963c-0.795,0.517-1.279,1.394-1.295,2.341
			c0.035,0.916,0.52,1.757,1.295,2.246c1.988,1.328,4.58,1.328,6.568,0c0.778-0.486,1.264-1.329,1.294-2.246
			c-0.013-0.947-0.498-1.826-1.294-2.341C256.232,3.045,255.081,2.707,253.911,2.747z M253.911,11.318
			c-2.472,0.127-4.93-0.43-7.105-1.608c-1.411-0.687-2.332-2.092-2.4-3.659c0.06-1.601,0.977-3.045,2.4-3.779
			c4.481-2.201,9.73-2.201,14.212,0c0.839,0.486,1.525,1.196,1.982,2.052c0.021,0.021,0.036,0.047,0.044,0.075l0.016,0.034
			c0.011,0.009,0.017,0.021,0.017,0.034l0.025,0.076h3.21V1.08h5v18.781h-5V7.411h-3.175l-0.018,0.078l-0.025,0.051l-0.018,0.033
			l-0.025,0.067c-0.465,0.871-1.171,1.589-2.034,2.068C258.84,10.888,256.382,11.445,253.911,11.318z"/>
		<path id="패스_4" fill="#2196F3" d="M241.784,5.745v2.6h-3.157v6.612h-5V1.081h5v4.664H241.784z"/>
		<path id="패스_5" fill="#2196F3" d="M238.627,16.97v9.8h-5v-6.84h-16.582v-2.96H238.627z"/>
		<path id="패스_6" fill="#2196F3" d="M217.495,9.088c0.263,2.496,2.499,4.306,4.995,4.043c2.133-0.225,3.818-1.91,4.043-4.043
			c-0.263-2.496-2.499-4.306-4.994-4.043C219.405,5.27,217.719,6.955,217.495,9.088z M222.014,15.181
			c-4.962,0-8.988-2.748-8.988-6.135c0.101-1.828,1.124-3.48,2.716-4.384l0.544-0.35h-2.834V1.506h6.136V0h4.936v1.506h6.231v2.807
			h-3.013l0.544,0.341c1.593,0.91,2.615,2.565,2.716,4.396C231.002,12.433,226.976,15.182,222.014,15.181L222.014,15.181z"/>
		<path id="사각형_2" fill="#2196F3" d="M183.949,19.735h26.918v2.681h-26.918V19.735z"/>
		<path id="패스_7" fill="#2196F3" d="M208.807,13.761v2.681h-22.842V1.507h22.842v2.68h-17.872v3.548h17.872v2.674h-17.872v3.353
			H208.807z"/>
		<path id="패스_8" fill="#2196F3" d="M182.314,7.573v2.699h-4.118v16.534h-5.124V1.064h5.124v6.511L182.314,7.573z"/>
		<path id="패스_9" fill="#2196F3" d="M161.116,0.868c5.285,0,8.969,4.247,8.969,10.331c0,6.109-3.684,10.383-8.969,10.383
			c-5.3,0-9-4.273-9-10.383C152.112,5.115,155.814,0.868,161.116,0.868z M165.552,11.216c0-4.6-1.651-7.344-4.435-7.344
			c-2.8,0-4.468,2.74-4.468,7.344c0,3.549,1.174,7.353,4.468,7.353C162.452,18.569,165.552,17.846,165.552,11.216z"/>
		<path id="패스_10" fill="#2196F3" d="M149.474,1.064v25.743h-5.106V10.271h-3.489V7.572h3.489V1.061L149.474,1.064z"/>
		<path id="패스_11" fill="#2196F3" d="M142.401,18.372v2.733h-19.819V1.488h16.973v2.749h-11.952v5.5h11.952v2.744h-11.952v5.888
			L142.401,18.372z"/>
		<path id="패스_12" fill="#2196F3" d="M118.989,15.285v3.028h-5.437v8.493h-4.859v-8.493h-6.945v8.493h-4.953v-8.493h-5.399
			v-3.028H118.989z"/>
		<path id="패스_13" fill="#2196F3" d="M117.186,10.468v2.748H93.179v-2.748h3.081V4.237h-3.081V1.488h24.007v2.749h-3.064v6.231
			H117.186z M108.999,10.468V4.237h-7.607v6.231H108.999z"/>
		<path id="패스_14" fill="#2196F3" d="M88.558,16.721v10.087h-22.9V16.721H88.558z M83.434,24.183v-4.8H70.669v4.8H83.434z"/>
		<path id="패스_15" fill="#2196F3" d="M88.557,1.064V15.3h-5.124V8.62h-3.956V5.982h3.956V1.064H88.557z"/>
		<path id="패스_16" fill="#2196F3" d="M77.494,1.488v13.744h-4.928v-4.551h-11.65v-2.75h11.65V4.237h-11.65V1.488H77.494z"/>
		<path id="사각형_3" fill="#2196F3" d="M52.968,1.064H58.1v17.701h-5.132V1.064z"/>
		<path id="패스_17" fill="#2196F3" d="M58.005,23.87v2.749H34.905v-9.131h5.012v6.382H58.005z"/>
		<path id="패스_18" fill="#2196F3" d="M51.003,13.105v2.748H30.978V7.131h12.245V4.237H30.978V1.488h17.123v8.394H35.838v3.225
			L51.003,13.105z"/>
		<path id="사각형_4" fill="#2196F3" d="M0,19.632h27.608v2.766H0V19.632z"/>
		<path id="패스_19" fill="#2196F3" d="M25.582,1.488v16.172H20.45V4.237H1.737V1.488H25.582z"/>
	</g>
	<g id="그룹_2" transform="translate(9.824 9.383)">
		<path id="사각형_5" fill="#2196F3" d="M266.183,0.196h5.114V25.94h-5.114V0.196z"/>
		<path id="패스_20" fill="#2196F3" d="M260.975,0.621v19.163h-17.3V0.621H260.975z M255.975,17.038V3.371H248.8v13.667H255.975z"
			/>
		<path id="사각형_6" fill="#2196F3" d="M236.116,0.196h4.69V25.94h-4.69V0.196z"/>
		<path id="패스_21" fill="#2196F3" d="M233.699,0.196V25.94h-4.536V9.404H224.9v-2.7h4.263V0.196H233.699z"/>
		<path id="패스_22" fill="#2196F3" d="M227.189,17.038v2.746h-13.233V0.621h13.22v2.75h-8.519v13.667H227.189z"/>
		<path id="패스_23" fill="#2196F3" d="M212.773,6.706v2.7h-4.128V25.94h-5.114V0.196h5.114v6.51H212.773z"/>
		<path id="패스_24" fill="#2196F3" d="M194.689,8.016V3.371h-11.31v-2.75h16.255v19.625h-4.944v-9.762h-11.31V8.016H194.689z"/>
		<path id="패스_25" fill="#2196F3" d="M182.315,6.706v2.7h-4.118V25.94h-5.124V0.196h5.124v6.51H182.315z"/>
		<path id="패스_26" fill="#2196F3" d="M161.115,0c5.285,0,8.97,4.247,8.97,10.332c0,6.11-3.685,10.382-8.97,10.382
			c-5.3,0-9-4.271-9-10.382C152.111,4.247,155.814,0,161.115,0z M165.549,10.349c0-4.605-1.652-7.354-4.434-7.354
			c-2.8,0-4.468,2.747-4.468,7.354c0,3.549,1.174,7.344,4.468,7.344C162.452,17.693,165.55,16.98,165.549,10.349L165.549,10.349z"/>
		<path id="패스_27" fill="#2196F3" d="M149.474,0.196V25.94h-5.123V9.404h-3.472v-2.7h3.472V0.196H149.474z"/>
		<path id="패스_28" fill="#2196F3" d="M142.393,17.498v2.748h-19.82V0.621h16.99v2.75h-11.961v5.5h11.961v2.75h-11.961v5.881
			L142.393,17.498z"/>
		<path id="패스_29" fill="#2196F3" d="M118.986,14.417v3.029h-5.439v8.492h-4.861v-8.492h-6.935v8.492h-4.955v-8.492h-5.4v-3.029
			H118.986z"/>
		<path id="패스_30" fill="#2196F3" d="M117.186,9.591v2.748H93.178V9.591h3.081v-6.22h-3.081v-2.75h24.008v2.75h-3.063v6.22
			H117.186z M108.986,9.591v-6.22h-7.613v6.22H108.986z"/>
		<path id="패스_31" fill="#2196F3" d="M88.541,15.855V25.94H65.657V15.855H88.541z M83.426,23.318v-4.81H70.662v4.81H83.426z"/>
		<path id="패스_32" fill="#2196F3" d="M88.545,0.196v14.238h-5.114V7.753h-3.966V5.107h3.966V0.196H88.545z"/>
		<path id="패스_33" fill="#2196F3" d="M77.495,0.621v13.744h-4.928V9.804h-11.65V7.056h11.65V3.371h-11.65v-2.75H77.495z"/>
		<path id="사각형_7" fill="#2196F3" d="M52.968,0.196h5.114v17.691h-5.114V0.196z"/>
		<path id="패스_34" fill="#2196F3" d="M58.007,23.003v2.744h-23.1v-9.14h5.013v6.392L58.007,23.003z"/>
		<path id="패스_35" fill="#2196F3" d="M50.986,12.238v2.746h-20V6.263h12.238V3.371H30.985v-2.75h17.1v8.39H35.838v3.228H50.986z
			"/>
		<path id="사각형_8" fill="#2196F3" d="M0,18.758h27.59v2.774H0V18.758z"/>
		<path id="패스_36" fill="#2196F3" d="M25.566,0.621V16.79h-5.115V3.371H1.737v-2.75H25.566z"/>
	</g>
	<path id="사각형_9" fill="#2196F3" d="M294.59,9.407h2.281v26.25h-2.281V9.407z"/>
</g>
</svg>
