<svg xmlns="http://www.w3.org/2000/svg" xmlns:xlink="http://www.w3.org/1999/xlink" version="1.1" id="Layer_1" x="0px" y="0px" width="12px" height="10px" viewBox="0 0 12 10" style="enable-background:new 0 0 12 10;" xml:space="preserve">
<path style="fill:#EF3E3D;" d="M11.778,4.432c-0.171,0.446-0.558,1.066-1.256,1.706C9.824,6.776,8.917,7.287,8.6,7.467  c-0.317,0.18-0.855,0.469-1.403,0.971c-0.55,0.503-0.94,0.96-1.2,1.542c0,0-0.276-0.67-0.997-1.353  C4.279,7.945,3.781,7.68,3.477,7.513c-0.304-0.167-1.094-0.61-1.648-1.068C1.275,5.988,0.798,5.499,0.45,4.918  c-0.348-0.581-0.457-1.081-0.418-1.95C0.071,2.098,0.501,1.04,1.1,0.583c0.598-0.458,1.32-0.715,2.524-0.461  c0.474,0.121,0.894,0.322,1.257,0.62c0.363,0.297,0.818,0.779,1.114,1.485c0,0,0.209-0.541,0.63-1.016  c0.421-0.474,0.768-0.708,1.235-0.92C8.33,0.08,8.937-0.01,9.461,0.029s1.039,0.205,1.483,0.6c0.446,0.395,0.667,0.919,0.732,1.076  c0.064,0.158,0.2,0.559,0.272,1.133C12.02,3.412,11.95,3.985,11.778,4.432z"></path>
</svg>