<svg xmlns="http://www.w3.org/2000/svg" xmlns:xlink="http://www.w3.org/1999/xlink" version="1.1" id="Layer_1" x="0px" y="0px" width="82.496px" height="78.658px" viewBox="0 0 82.496 78.658" style="enable-background:new 0 0 82.496 78.658;" xml:space="preserve">
<path style="fill:#0B21EE;" d="M3.819,70.997c-0.896,0-1.737-0.349-2.37-0.981L0,68.568l1.767-1.769l1.449,1.448  c0.323,0.321,0.884,0.319,1.205,0l0.565-0.564c1.265-1.268,3.474-1.268,4.74,0l0.502,0.502c0.333,0.334,0.874,0.333,1.206,0.001  l0.503-0.503c1.267-1.268,3.475-1.268,4.741,0l1.448,1.447l-1.767,1.769l-1.449-1.448c-0.323-0.322-0.884-0.322-1.206,0  l-0.503,0.503c-1.307,1.307-3.433,1.307-4.74,0l-0.503-0.502c-0.323-0.324-0.884-0.323-1.205-0.001l-0.566,0.564  C5.556,70.648,4.714,70.997,3.819,70.997z"></path>
<path style="fill:#222222;" d="M6.663,16.199c-1.377,0-3.188-0.238-4.64-0.679c-0.418-0.127-0.677-0.54-0.601-0.969l0.069-0.385  c0.085-0.474,0.548-0.793,1.017-0.681c1.416,0.338,2.914,0.525,4.185,0.525c2.611,0,3.12-0.451,3.12-2.101c0-1.8,0-1.89-3.57-2.819  C1.684,7.889,1.474,7.109,1.474,4.17C1.474,1.019,2.913,0,7.233,0c1.101,0,2.68,0.145,4.009,0.403  c0.433,0.084,0.73,0.483,0.686,0.922L11.884,1.76c-0.049,0.486-0.492,0.83-0.975,0.754C9.682,2.324,8.244,2.19,7.264,2.19  c-2.851,0-3.241,0.27-3.241,2.07c0,1.74,0.031,1.83,3.51,2.79c4.59,1.229,4.83,1.83,4.83,4.799  C12.363,14.76,11.493,16.199,6.663,16.199"></path>
<path style="fill:#222222;" d="M39.741,3.4c0-0.47-0.381-0.851-0.851-0.851h-3.429c-0.47,0-0.85-0.38-0.85-0.85V1.15  c0-0.47,0.38-0.851,0.85-0.851h11.107c0.471,0,0.852,0.381,0.852,0.851v0.549c0,0.47-0.381,0.85-0.852,0.85H43.14  c-0.47,0-0.85,0.381-0.85,0.851v11.225c0,0.704-0.571,1.274-1.275,1.274c-0.704,0-1.274-0.57-1.274-1.274V3.4z"></path>
<path style="fill:#222222;" d="M81.067,0.3c0.704,0,1.274,0.57,1.274,1.274v9.856c0,2.609-1.528,4.769-6.299,4.769  c-4.77,0-6.3-2.16-6.3-4.769V1.574c0-0.704,0.571-1.274,1.274-1.274c0.704,0,1.275,0.57,1.275,1.274v9.646  c0,1.74,0.93,2.729,3.75,2.729c2.819,0,3.749-0.989,3.749-2.729V1.574C79.792,0.87,80.363,0.3,81.067,0.3"></path>
<path style="fill:#222222;" d="M7.467,31.856c4.41,0,5.52,2.04,5.52,4.92v5.759c0,2.88-1.11,4.92-5.52,4.92H2.645  c-0.783,0-1.418-0.634-1.418-1.417V33.274c0-0.784,0.635-1.418,1.418-1.418H7.467z M3.777,44.385c0,0.471,0.381,0.852,0.851,0.852  h2.659c2.37,0,3.15-0.812,3.15-2.701v-5.759c0-1.89-0.78-2.701-3.15-2.701H4.628c-0.47,0-0.851,0.381-0.851,0.851V44.385z"></path>
<path style="fill:#222222;" d="M42.318,33.11V46.16c0,0.704-0.571,1.275-1.274,1.275c-0.705,0-1.275-0.571-1.275-1.275V33.11  c0-0.704,0.571-1.274,1.275-1.274C41.747,31.836,42.318,32.406,42.318,33.11"></path>
<path style="fill:#222222;" d="M82.496,42.777c0,2.67-1.56,4.979-6.39,4.979c-4.829,0-6.391-2.309-6.391-4.979v-6.241  c0-2.669,1.562-4.979,6.391-4.979c4.83,0,6.39,2.31,6.39,4.979V42.777z M76.106,33.807c-2.79,0-3.841,0.96-3.841,2.82v6.06  c0,1.859,1.051,2.819,3.841,2.819c2.76,0,3.84-0.96,3.84-2.819v-6.06C79.946,34.767,78.866,33.807,76.106,33.807"></path>
<path style="fill:#222222;" d="M41.023,62.855c0.704,0,1.274,0.571,1.274,1.275v9.936c0,1.652-0.146,2.082-2.605,4.292  c-0.478,0.432-1.22,0.394-1.649-0.087c-0.418-0.467-0.394-1.183,0.06-1.616c1.644-1.568,1.644-1.723,1.644-2.589V64.13  C39.748,63.426,40.318,62.855,41.023,62.855"></path>
<path style="fill:#222222;" d="M74.74,65.105h-4.005c-0.621,0-1.125-0.503-1.125-1.125c0-0.621,0.504-1.125,1.125-1.125h10.559  c0.621,0,1.125,0.504,1.125,1.125c0,0.622-0.504,1.125-1.125,1.125h-4.005V77.18c0,0.704-0.57,1.275-1.274,1.275  s-1.274-0.571-1.274-1.275V65.105z"></path>
</svg>