<svg xmlns="http://www.w3.org/2000/svg" xmlns:xlink="http://www.w3.org/1999/xlink" version="1.1" id="Layer_1" x="0px" y="0px" width="41.686px" height="8.55px" viewBox="0 0 41.686 8.55" style="enable-background:new 0 0 41.686 8.55;" xml:space="preserve">
<path style="fill:#FFFC00;" d="M7.923,8.502c-1.849,0-3.698-0.703-5.106-2.111L0,3.574l2.829-2.829l2.817,2.817  c1.256,1.256,3.3,1.256,4.556,0l1.402-1.403c2.816-2.815,7.398-2.815,10.212,0l1.25,1.249c1.256,1.257,3.299,1.255,4.555,0  l1.25-1.25c2.814-2.814,7.396-2.815,10.211,0l2.604,2.457L38.94,7.526l-2.646-2.497c-1.299-1.298-3.379-1.258-4.596-0.04  l-1.25,1.249c-1.364,1.364-3.177,2.115-5.105,2.115s-3.741-0.751-5.105-2.115l-1.25-1.249c-1.257-1.257-3.3-1.257-4.556,0  L13.03,6.391C11.622,7.799,9.772,8.502,7.923,8.502z"></path>
</svg>